<?xml version="1.0" standalone="no"?>
<!DOCTYPE svg PUBLIC "-//W3C//DTD SVG 20010904//EN"
 "http://www.w3.org/TR/2001/REC-SVG-20010904/DTD/svg10.dtd">
<svg version="1.0" xmlns="http://www.w3.org/2000/svg"
 width="3000.000000pt" height="3000.000000pt" viewBox="0 0 3000.000000 3000.000000"
 preserveAspectRatio="xMidYMid meet">
<metadata>
Created by potrace 1.14, written by Peter Selinger 2001-2017
</metadata>
<g transform="translate(0.000000,3000.000000) scale(0.100000,-0.100000)"
fill="#000000" stroke="none">
<path d="M14391 29325 c-1 -5 -29 -11 -64 -11 -34 -1 -79 -4 -99 -7 -25 -3
-38 -1 -38 7 0 8 -2 8 -8 0 -4 -6 -14 -11 -22 -12 -79 -6 -120 -6 -120 1 0 5
-6 5 -12 0 -7 -4 -35 -8 -63 -9 -130 -3 -175 -8 -175 -17 0 -5 -6 -5 -13 2 -8
6 -17 7 -21 3 -4 -4 -42 -8 -84 -9 -42 -1 -78 -3 -79 -4 -2 -1 -11 -2 -20 -3
-10 -1 -45 -6 -78 -11 -72 -10 -90 -12 -175 -19 -36 -4 -78 -9 -95 -11 -61
-11 -101 -16 -142 -17 -24 -1 -43 -5 -43 -8 0 -5 -36 -11 -82 -13 -10 -1 -18
-4 -18 -7 0 -4 -7 -7 -15 -7 -8 0 -15 5 -15 10 0 6 -5 6 -12 0 -7 -6 -20 -11
-28 -11 -8 -1 -26 -3 -40 -6 -50 -10 -105 -18 -120 -18 -8 0 -33 -5 -55 -10
-53 -13 -92 -19 -137 -21 -21 -1 -38 -6 -38 -10 0 -5 -4 -6 -9 -2 -5 3 -12 1
-15 -3 -3 -5 -21 -9 -41 -10 -19 -1 -45 -6 -56 -13 -16 -8 -20 -8 -14 1 6 9 3
9 -12 1 -11 -5 -38 -13 -59 -16 -97 -13 -125 -18 -139 -26 -5 -4 -18 -5 -27
-4 -10 2 -18 -1 -18 -6 0 -4 -7 -6 -15 -3 -8 4 -23 3 -32 -1 -26 -12 -103 -26
-145 -28 -10 -1 -18 -5 -18 -10 0 -4 -4 -6 -9 -2 -5 3 -12 1 -15 -4 -3 -4 -19
-7 -36 -5 -16 2 -30 0 -30 -5 0 -7 -7 -9 -50 -13 -11 -1 -20 -5 -20 -8 0 -4
-10 -6 -22 -5 -13 1 -32 -5 -42 -14 -11 -9 -16 -10 -12 -3 4 6 2 12 -3 12 -6
0 -11 -5 -11 -10 0 -6 -3 -9 -7 -9 -5 1 -10 1 -13 0 -6 -3 -71 -13 -87 -14 -7
0 -10 -4 -7 -9 3 -4 -10 -9 -28 -10 -18 0 -37 -2 -43 -3 -5 -2 -14 -4 -20 -5
-5 -1 -13 -2 -17 -1 -5 0 -8 -4 -8 -10 0 -6 -6 -9 -14 -6 -8 3 -17 3 -20 -1
-4 -3 -16 -7 -28 -9 -12 -2 -26 -9 -30 -16 -6 -9 -8 -9 -8 1 0 9 -5 10 -19 3
-10 -6 -32 -13 -49 -16 -17 -3 -44 -10 -59 -17 -15 -6 -37 -11 -48 -12 -11 -1
-26 -5 -32 -9 -7 -5 -13 -6 -13 -2 0 3 -10 0 -22 -7 -13 -6 -35 -12 -49 -13
-15 0 -33 -6 -42 -13 -8 -7 -19 -12 -23 -11 -5 1 -11 0 -14 -1 -3 -1 -14 -3
-25 -5 -10 -2 -28 -8 -40 -14 -18 -8 -61 -20 -82 -22 -5 0 -12 -4 -18 -9 -5
-4 -25 -11 -42 -15 -18 -3 -33 -11 -33 -16 0 -6 -4 -8 -9 -4 -6 3 -42 -6 -80
-19 -39 -14 -71 -22 -71 -18 0 4 -4 1 -8 -5 -4 -7 -19 -15 -32 -17 -14 -2 -26
-5 -27 -7 -4 -2 -20 -6 -34 -8 -5 0 -8 -4 -6 -8 3 -5 -7 -9 -21 -9 -15 -1 -40
-7 -57 -14 -16 -7 -36 -12 -42 -11 -7 1 -13 -3 -13 -9 0 -6 -4 -8 -10 -5 -5 3
-22 0 -37 -8 -15 -8 -34 -12 -40 -10 -7 3 -13 0 -13 -5 0 -5 -15 -13 -32 -17
-18 -4 -35 -8 -38 -9 -3 -1 -12 -6 -20 -11 -23 -15 -83 -34 -91 -30 -4 3 -10
-2 -13 -11 -3 -8 -10 -13 -15 -10 -11 7 -71 -13 -71 -25 0 -4 -7 -6 -15 -3 -8
4 -15 1 -15 -6 0 -7 -7 -10 -15 -6 -8 3 -15 1 -15 -4 0 -6 -9 -10 -19 -10 -26
0 -52 -10 -47 -19 2 -3 -10 -7 -27 -8 -18 -2 -33 -7 -35 -13 -2 -6 -8 -8 -13
-4 -5 3 -9 1 -9 -4 0 -5 -7 -9 -15 -10 -8 -1 -22 -3 -30 -4 -8 -1 -15 -5 -15
-10 0 -5 -4 -7 -9 -3 -5 3 -12 1 -16 -5 -3 -5 -15 -10 -25 -10 -10 0 -25 -6
-32 -12 -14 -13 -33 -20 -55 -21 -7 0 -13 -4 -13 -9 0 -4 -3 -7 -7 -6 -5 1
-18 -3 -31 -10 -12 -7 -27 -10 -32 -7 -6 3 -10 1 -10 -5 0 -6 -4 -8 -10 -5 -5
3 -10 2 -10 -3 0 -6 -11 -13 -25 -16 -14 -4 -25 -11 -25 -16 0 -5 -7 -7 -15
-4 -8 4 -15 1 -15 -6 0 -6 -4 -8 -10 -5 -5 3 -21 -2 -35 -11 -14 -9 -25 -13
-25 -9 0 3 -14 -3 -31 -15 -16 -12 -33 -19 -36 -16 -4 3 -15 -1 -25 -11 -10
-9 -18 -13 -18 -8 0 4 -7 2 -15 -5 -8 -7 -15 -9 -15 -6 0 4 -10 0 -22 -8 -12
-9 -29 -16 -37 -16 -7 0 -20 -8 -28 -17 -8 -10 -11 -12 -8 -5 4 8 -11 2 -34
-12 -22 -14 -46 -26 -54 -26 -7 0 -23 -7 -35 -16 -12 -8 -22 -12 -22 -8 0 4
-8 0 -17 -9 -10 -8 -30 -19 -45 -22 -16 -4 -28 -11 -28 -16 0 -5 -3 -8 -7 -7
-13 3 -113 -45 -113 -54 0 -5 -4 -6 -10 -3 -5 3 -10 1 -10 -5 0 -6 -4 -9 -9
-5 -5 3 -17 -2 -25 -11 -9 -8 -16 -13 -16 -10 0 3 -12 -1 -27 -9 -15 -8 -30
-12 -35 -9 -4 3 -8 0 -8 -6 0 -8 -34 -27 -60 -32 -3 -1 -11 -8 -18 -15 -8 -7
-17 -11 -22 -8 -4 3 -11 -2 -14 -10 -3 -8 -9 -15 -13 -14 -19 3 -34 -2 -29 -9
2 -4 -5 -9 -16 -9 -12 -1 -24 -6 -27 -11 -3 -4 -23 -16 -43 -25 -20 -10 -40
-22 -43 -27 -3 -5 -12 -7 -20 -3 -8 3 -15 1 -15 -5 0 -5 -15 -15 -32 -23 -18
-7 -35 -15 -38 -19 -6 -7 -62 -33 -73 -34 -4 -1 -11 -6 -15 -11 -4 -6 -19 -16
-34 -22 -16 -7 -28 -17 -28 -23 0 -6 -4 -9 -9 -5 -5 3 -30 -8 -54 -25 -25 -16
-48 -30 -52 -30 -4 0 -14 -8 -22 -17 -8 -10 -12 -12 -8 -5 3 6 3 12 0 12 -4 0
-13 -6 -20 -12 -35 -32 -45 -38 -60 -38 -8 0 -15 -5 -15 -11 0 -5 -4 -7 -10
-4 -5 3 -10 1 -10 -4 0 -6 -10 -11 -22 -11 -12 0 -19 -3 -15 -6 3 -3 -15 -17
-41 -31 -26 -14 -50 -29 -53 -35 -3 -5 -10 -9 -15 -9 -5 1 -18 -7 -29 -16 -11
-10 -26 -18 -33 -19 -8 -2 -22 -10 -31 -18 -10 -9 -21 -16 -25 -16 -4 0 -14
-6 -21 -12 -34 -31 -43 -36 -49 -31 -3 3 -8 -2 -12 -11 -3 -9 -10 -13 -15 -11
-4 3 -17 -3 -28 -14 -11 -11 -22 -17 -25 -14 -3 4 -6 1 -6 -6 0 -7 -4 -9 -10
-6 -5 3 -15 -3 -22 -15 -7 -11 -21 -20 -30 -20 -9 0 -21 -7 -26 -16 -5 -9 -11
-15 -13 -14 -9 5 -79 -43 -79 -53 0 -6 -3 -8 -6 -4 -4 3 -41 -17 -83 -46 -42
-28 -80 -52 -86 -52 -5 -1 -8 -7 -7 -15 2 -8 0 -12 -4 -8 -7 7 -62 -26 -76
-47 -4 -5 -8 -6 -8 -2 0 5 -7 2 -15 -5 -22 -20 -35 -30 -110 -83 -38 -27 -77
-55 -85 -62 -8 -7 -18 -13 -22 -13 -5 0 -16 -8 -26 -17 -35 -33 -62 -53 -62
-45 0 4 -5 -1 -11 -10 -5 -10 -14 -18 -19 -18 -6 0 -21 -10 -36 -22 -14 -13
-28 -22 -31 -20 -2 2 -13 -7 -24 -19 -10 -12 -19 -19 -19 -15 0 4 -11 -4 -24
-18 -13 -15 -27 -26 -31 -26 -4 0 -16 -10 -26 -22 -11 -11 -19 -17 -19 -12 0
5 -7 0 -15 -10 -8 -11 -15 -17 -15 -13 0 5 -6 2 -14 -5 -8 -7 -12 -16 -10 -19
2 -4 -8 -10 -21 -13 -16 -4 -23 -11 -19 -18 5 -8 2 -9 -9 -5 -11 4 -17 1 -17
-8 0 -8 -6 -14 -12 -13 -7 2 -12 -3 -10 -9 1 -7 -4 -13 -10 -13 -7 0 -33 -18
-58 -40 -25 -22 -51 -40 -58 -40 -7 0 -10 -4 -7 -10 3 -5 -1 -10 -9 -10 -9 0
-16 -4 -16 -9 0 -5 -9 -13 -20 -16 -11 -4 -18 -10 -15 -15 3 -4 -5 -10 -16
-13 -13 -4 -18 -10 -13 -18 4 -7 3 -10 -3 -6 -5 3 -22 -5 -38 -19 -15 -13 -32
-24 -37 -24 -5 0 -6 -4 -3 -10 3 -5 0 -10 -7 -10 -8 0 -21 -8 -29 -17 -9 -10
-25 -24 -35 -31 -10 -7 -13 -10 -6 -7 6 3 12 4 12 0 0 -3 -9 -9 -19 -13 -25
-9 -151 -113 -151 -124 0 -4 -7 -8 -15 -8 -8 0 -15 -7 -15 -16 0 -10 -6 -14
-15 -10 -9 3 -15 0 -15 -9 0 -8 -4 -15 -9 -15 -5 0 -24 -14 -42 -31 -19 -18
-44 -38 -56 -46 -13 -9 -21 -19 -18 -23 3 -5 -4 -11 -15 -15 -11 -3 -20 -11
-20 -16 0 -5 -4 -8 -9 -7 -5 2 -9 1 -8 -2 0 -6 -73 -80 -80 -80 -2 0 -20 -15
-38 -34 -18 -19 -36 -32 -39 -29 -3 4 -6 -2 -6 -12 0 -10 -3 -15 -6 -12 -4 4
-38 -25 -75 -64 -38 -38 -69 -66 -69 -62 -1 4 -7 -3 -15 -17 -8 -14 -14 -22
-15 -18 0 4 -15 -8 -33 -27 -19 -19 -37 -31 -41 -27 -4 4 -6 3 -4 -3 1 -5 -44
-57 -102 -114 -58 -57 -104 -108 -102 -113 1 -4 -2 -7 -7 -6 -11 3 -81 -70
-81 -83 0 -5 -7 -9 -17 -9 -9 0 -13 -3 -10 -7 4 -3 -5 -15 -20 -25 -16 -10
-24 -18 -19 -18 5 0 -15 -22 -45 -50 -30 -27 -51 -50 -48 -50 3 0 -24 -31 -60
-68 -36 -37 -85 -89 -107 -115 -23 -25 -45 -43 -49 -39 -5 4 -5 2 -1 -5 3 -6
-2 -16 -11 -22 -10 -6 -15 -11 -12 -11 4 0 -11 -18 -32 -40 -22 -22 -39 -45
-39 -51 0 -5 -4 -7 -10 -4 -5 3 -10 -1 -10 -9 0 -9 -5 -16 -10 -16 -6 0 -16
-11 -22 -25 -6 -13 -19 -27 -30 -30 -10 -4 -18 -13 -18 -21 0 -8 -4 -14 -10
-14 -5 0 -10 -7 -10 -15 0 -8 -7 -15 -15 -15 -8 0 -15 -5 -15 -12 0 -6 -7 -18
-15 -27 -23 -25 -57 -65 -90 -107 -16 -20 -40 -48 -52 -61 -12 -12 -19 -23
-16 -23 3 0 -4 -9 -17 -20 -13 -11 -20 -20 -15 -20 4 0 -4 -9 -19 -21 -14 -11
-26 -24 -26 -29 0 -5 -16 -26 -35 -47 -19 -21 -35 -41 -35 -45 0 -4 -10 -18
-22 -31 -32 -33 -63 -71 -63 -77 0 -6 -7 -14 -50 -63 -14 -15 -25 -32 -25 -36
0 -5 -12 -20 -26 -35 -15 -14 -24 -26 -20 -26 4 0 -3 -10 -15 -22 -11 -13 -35
-43 -52 -68 -17 -25 -35 -48 -41 -52 -6 -4 -11 -11 -11 -15 0 -8 -13 -25 -47
-63 -9 -10 -14 -20 -12 -23 2 -2 -5 -12 -16 -22 -11 -10 -20 -24 -20 -32 0 -7
-7 -16 -15 -19 -8 -4 -13 -10 -10 -14 3 -4 -2 -10 -10 -14 -8 -3 -15 -12 -15
-21 0 -8 -4 -15 -10 -15 -5 0 -10 -7 -10 -15 0 -9 -7 -18 -15 -21 -8 -4 -13
-10 -10 -14 3 -4 -2 -10 -10 -14 -8 -3 -15 -12 -15 -21 0 -8 -4 -15 -10 -15
-5 0 -10 -6 -10 -14 0 -8 -3 -16 -7 -18 -8 -3 -58 -76 -63 -93 -2 -5 -12 -19
-22 -29 -9 -10 -15 -23 -12 -28 3 -4 -2 -8 -11 -8 -9 0 -14 -4 -11 -8 3 -5 -5
-19 -17 -33 -12 -14 -23 -31 -25 -39 -2 -8 -12 -24 -23 -36 -10 -11 -19 -23
-19 -27 0 -9 -63 -101 -73 -105 -4 -2 -5 -8 -1 -13 3 -5 0 -9 -5 -9 -6 0 -11
-7 -11 -16 0 -9 -5 -12 -12 -8 -7 4 -8 3 -4 -5 4 -6 0 -18 -8 -27 -9 -9 -14
-20 -11 -25 4 -5 2 -9 -4 -9 -10 0 -47 -56 -53 -80 -2 -8 -8 -19 -14 -25 -6
-5 -22 -30 -35 -55 -13 -25 -30 -49 -37 -53 -7 -5 -10 -12 -7 -18 4 -5 1 -9
-6 -9 -7 0 -10 -3 -7 -6 5 -5 -25 -58 -50 -89 -4 -5 -8 -13 -8 -17 1 -4 -6
-15 -14 -25 -9 -10 -16 -20 -16 -23 1 -3 -16 -35 -37 -72 -20 -36 -37 -71 -37
-77 0 -6 -3 -11 -8 -11 -4 0 -18 -24 -31 -52 -14 -29 -31 -61 -39 -70 -8 -10
-11 -18 -7 -18 4 0 -1 -8 -12 -17 -11 -10 -19 -26 -17 -35 1 -10 -2 -18 -7
-18 -5 0 -9 -7 -9 -15 0 -9 -7 -18 -15 -21 -8 -4 -12 -11 -9 -16 4 -6 3 -13
-2 -17 -5 -3 -25 -37 -43 -76 -19 -38 -40 -73 -45 -77 -6 -4 -7 -8 -3 -8 5 0
-2 -14 -14 -32 -13 -17 -16 -28 -8 -23 9 5 8 1 -4 -12 -9 -11 -17 -25 -17 -31
0 -7 -4 -12 -10 -12 -5 0 -9 -3 -8 -7 1 -5 -6 -23 -15 -40 -10 -18 -15 -33
-12 -33 4 0 -1 -7 -9 -16 -9 -8 -14 -20 -11 -25 4 -5 2 -9 -3 -9 -6 0 -15 -13
-21 -30 -5 -16 -7 -30 -4 -30 4 0 -2 -6 -13 -14 -10 -8 -16 -17 -12 -21 3 -4
-1 -15 -10 -26 -17 -19 -18 -23 -21 -55 0 -8 -5 -13 -11 -9 -5 3 -14 -12 -20
-34 -6 -22 -15 -43 -21 -47 -6 -3 -8 -12 -5 -19 2 -7 -1 -16 -9 -18 -7 -3 -16
-19 -20 -36 -4 -17 -11 -31 -16 -31 -6 0 -8 -4 -5 -8 2 -4 -6 -29 -20 -56 -13
-26 -24 -53 -24 -61 0 -7 -7 -16 -16 -19 -13 -5 -14 -9 -4 -21 7 -8 8 -15 3
-15 -10 0 -34 -43 -39 -69 -1 -8 -6 -17 -11 -20 -7 -6 -12 -19 -17 -47 -1 -7
-7 -18 -14 -26 -6 -8 -9 -18 -5 -21 3 -4 1 -7 -6 -7 -7 0 -10 -4 -6 -9 3 -5 1
-12 -5 -16 -6 -4 -8 -11 -5 -16 4 -5 1 -9 -4 -9 -6 0 -10 -3 -10 -7 1 -5 0
-11 -1 -15 -1 -5 -3 -11 -5 -15 -1 -5 -12 -30 -25 -58 -12 -27 -23 -56 -23
-62 0 -7 -4 -13 -9 -13 -4 0 -7 -3 -6 -7 1 -5 -4 -21 -10 -36 -7 -16 -12 -35
-12 -43 0 -8 -6 -14 -12 -14 -10 0 -9 -3 1 -9 9 -6 10 -10 2 -12 -7 -3 -13
-11 -14 -19 -2 -8 -6 -21 -10 -27 -5 -7 -5 -13 0 -13 4 0 2 -4 -5 -8 -7 -5
-15 -22 -18 -37 -3 -16 -9 -34 -15 -41 -5 -6 -6 -14 -2 -17 3 -4 2 -7 -3 -7
-5 0 -10 -12 -11 -26 0 -15 -7 -30 -15 -35 -7 -5 -9 -9 -5 -9 4 0 2 -10 -5
-22 -7 -13 -11 -27 -10 -31 1 -4 -5 -21 -13 -37 -9 -17 -13 -30 -9 -30 4 0 1
-7 -6 -15 -7 -9 -13 -23 -14 -33 -1 -9 -9 -32 -19 -49 -10 -18 -17 -35 -17
-38 -1 -27 -15 -63 -23 -58 -6 3 -7 1 -3 -5 4 -7 4 -18 -1 -24 -4 -7 -8 -17
-9 -23 -3 -33 -18 -75 -26 -75 -5 0 -7 -4 -4 -9 4 -5 1 -22 -6 -38 -14 -34
-13 -31 -23 -68 -4 -16 -13 -36 -19 -44 -9 -12 -8 -13 3 -7 9 6 8 1 -3 -17 -9
-13 -16 -29 -15 -33 1 -5 -3 -22 -10 -39 -7 -16 -14 -39 -15 -50 -2 -11 -8
-30 -14 -42 -7 -12 -12 -30 -12 -40 0 -10 -7 -31 -15 -47 -8 -15 -12 -32 -9
-37 3 -6 0 -16 -6 -24 -6 -8 -9 -19 -5 -25 3 -5 1 -10 -5 -10 -7 0 -10 -7 -6
-15 3 -8 2 -15 -2 -15 -6 0 -26 -70 -38 -135 -1 -5 -3 -13 -4 -17 -1 -5 -3
-11 -4 -15 -1 -5 -5 -14 -9 -20 -5 -7 -5 -18 -2 -23 4 -6 2 -16 -3 -23 -8 -10
-19 -47 -57 -197 -2 -8 -4 -15 -5 -15 -3 0 -11 -52 -13 -77 -1 -9 -5 -14 -9
-12 -4 3 -9 -6 -9 -20 -2 -33 -6 -64 -9 -73 -2 -5 -4 -12 -5 -18 -2 -5 -4 -12
-5 -15 -6 -15 -22 -93 -23 -107 0 -7 -3 -13 -7 -13 -4 0 -7 -6 -7 -12 -1 -7
-4 -31 -8 -53 -4 -22 -7 -48 -8 -57 -1 -10 -5 -18 -10 -18 -4 0 -6 -4 -3 -8 2
-4 -4 -43 -14 -87 -10 -44 -21 -100 -25 -125 -4 -24 -9 -48 -11 -52 -6 -10
-16 -66 -17 -100 -1 -16 -4 -28 -7 -28 -4 0 -7 -6 -8 -12 0 -7 -4 -35 -8 -63
-4 -27 -8 -62 -8 -77 -1 -14 -4 -24 -8 -21 -7 4 -13 -29 -9 -51 1 -4 -4 -15
-11 -24 -11 -13 -11 -14 2 -7 12 7 13 6 4 -6 -6 -8 -11 -27 -12 -42 -1 -15 -7
-37 -13 -49 -9 -16 -8 -19 2 -13 8 6 10 4 3 -6 -9 -15 -10 -19 -18 -94 -3 -27
-8 -70 -12 -95 -4 -25 -8 -57 -8 -72 -1 -16 -4 -28 -9 -28 -4 0 -5 -11 -3 -24
2 -13 1 -27 -2 -31 -4 -4 -8 -15 -8 -26 -1 -10 -3 -20 -4 -21 -1 -2 -4 -25 -5
-53 -2 -27 -4 -50 -5 -50 -1 0 -3 -20 -5 -45 -2 -25 -6 -58 -9 -75 -3 -16 -8
-52 -11 -80 -2 -27 -7 -75 -11 -105 -4 -30 -7 -72 -8 -92 0 -21 -3 -38 -6 -38
-3 0 -6 -33 -7 -73 -4 -106 -8 -145 -15 -153 -4 -4 -3 -15 3 -25 5 -11 6 -19
1 -19 -5 0 -10 -17 -11 -37 -1 -21 -3 -79 -5 -128 -3 -50 -5 -95 -6 -100 -1
-6 -2 -13 0 -17 2 -10 2 -97 0 -100 -2 -3 -8 -67 -13 -145 -2 -29 -6 -56 -10
-59 -3 -4 -2 -16 4 -27 6 -10 7 -17 2 -14 -6 4 -9 -220 -8 -571 1 -317 3 -577
5 -577 2 0 8 -71 12 -162 1 -24 6 -43 10 -43 5 0 4 -9 -2 -20 -6 -11 -7 -20
-3 -20 4 0 9 -37 9 -83 2 -151 6 -197 18 -197 6 0 6 -4 -2 -9 -15 -9 -15 -13
-1 -48 6 -15 5 -23 -2 -23 -8 0 -8 -4 -2 -12 10 -14 13 -47 17 -163 1 -38 5
-75 9 -82 4 -6 3 -14 -3 -18 -6 -4 -7 -12 -3 -18 11 -17 14 -35 18 -92 2 -27
4 -50 5 -50 1 0 4 -18 5 -40 1 -22 6 -53 9 -70 9 -40 15 -90 17 -147 1 -27 6
-48 10 -48 4 0 6 -9 4 -20 -2 -11 0 -22 4 -24 4 -3 6 -19 5 -35 -1 -17 2 -31
7 -31 5 0 4 -11 -1 -25 -5 -14 -6 -25 -1 -25 8 0 9 -7 12 -55 1 -14 4 -25 8
-25 5 0 11 -53 15 -135 0 -16 4 -33 9 -36 4 -3 9 -25 11 -50 2 -24 5 -44 6
-44 1 0 4 -18 6 -40 2 -22 7 -47 10 -55 4 -8 8 -26 9 -40 1 -14 4 -42 6 -62 2
-21 6 -38 9 -38 3 0 7 -12 9 -27 6 -55 9 -78 11 -78 1 0 3 -13 5 -29 2 -16 7
-36 11 -45 4 -9 8 -32 10 -51 2 -19 7 -46 11 -60 3 -14 8 -32 9 -40 1 -8 6
-26 9 -40 17 -63 36 -165 38 -197 0 -7 3 -13 7 -13 4 0 7 -6 8 -12 3 -35 9
-65 16 -76 4 -7 5 -16 2 -21 -3 -5 0 -11 7 -14 8 -3 13 -16 12 -29 -1 -12 4
-43 11 -68 7 -25 14 -56 16 -70 2 -14 6 -29 10 -35 3 -5 12 -38 18 -72 7 -35
17 -63 22 -63 6 0 8 -7 5 -15 -4 -8 -2 -17 3 -20 5 -3 7 -12 4 -20 -3 -8 -2
-20 2 -27 5 -7 9 -19 10 -26 2 -8 6 -21 10 -30 4 -9 8 -25 9 -34 2 -10 4 -20
5 -23 1 -3 4 -9 5 -15 1 -5 3 -11 4 -12 3 -4 11 -40 14 -63 1 -11 6 -23 11
-26 4 -4 10 -20 12 -36 2 -16 8 -43 14 -59 13 -32 21 -62 22 -81 1 -7 6 -13
11 -13 5 0 7 -7 3 -15 -3 -8 -1 -15 4 -15 5 0 7 -7 4 -15 -4 -8 -1 -15 6 -15
9 0 10 -3 1 -14 -9 -10 -8 -16 4 -26 8 -6 17 -27 21 -46 3 -19 11 -34 18 -34
7 0 6 -4 -2 -9 -11 -7 -11 -9 2 -14 9 -4 13 -14 11 -26 -2 -11 1 -23 6 -26 5
-4 7 -11 4 -16 -4 -5 -2 -9 4 -9 6 0 8 -7 5 -15 -4 -8 -1 -15 6 -15 7 0 10 -7
6 -15 -3 -8 0 -15 6 -15 6 0 8 -3 5 -7 -4 -3 -2 -11 3 -18 5 -6 10 -26 12 -43
1 -18 6 -32 10 -32 4 0 8 -8 8 -18 0 -10 6 -27 14 -37 8 -11 12 -25 9 -32 -3
-7 -1 -13 4 -13 5 0 10 -6 11 -12 2 -23 8 -42 19 -63 5 -11 8 -26 6 -32 -3 -7
0 -13 7 -13 6 0 9 -4 5 -9 -3 -5 0 -15 7 -23 12 -12 17 -25 22 -53 1 -5 4 -14
7 -20 4 -5 12 -28 19 -50 7 -22 17 -45 22 -52 5 -7 7 -17 3 -23 -3 -5 -1 -10
4 -10 6 0 10 -3 9 -7 -1 -5 5 -21 12 -38 7 -16 13 -33 12 -37 -1 -5 3 -8 8 -8
5 0 9 -3 8 -7 -1 -9 9 -40 23 -67 8 -14 8 -16 -3 -10 -7 4 -5 -2 5 -13 9 -11
14 -23 10 -26 -3 -4 0 -7 7 -7 7 0 10 -3 7 -6 -4 -4 0 -19 7 -33 7 -14 19 -39
26 -56 7 -16 21 -47 32 -67 10 -20 18 -40 17 -45 -3 -18 1 -34 9 -29 4 2 9 -7
10 -22 1 -15 7 -28 12 -30 6 -2 10 -8 10 -13 0 -6 9 -29 20 -51 11 -23 20 -47
20 -54 0 -7 7 -19 15 -28 9 -8 14 -19 13 -23 -1 -4 18 -51 43 -103 25 -52 52
-110 60 -128 7 -17 17 -32 21 -32 4 0 5 -6 2 -14 -3 -7 2 -20 10 -29 9 -9 16
-23 16 -31 0 -9 5 -16 11 -16 6 0 9 -7 5 -15 -3 -8 -2 -15 3 -15 4 0 16 -20
27 -45 10 -25 22 -45 28 -45 5 0 6 -3 3 -6 -3 -4 -1 -16 5 -28 7 -11 13 -23
13 -26 1 -3 11 -20 22 -39 12 -19 20 -38 17 -43 -3 -4 0 -8 6 -8 6 0 8 -4 5
-10 -3 -5 -1 -10 5 -10 6 0 8 -4 5 -10 -3 -5 -2 -10 3 -10 9 0 25 -37 23 -52
-1 -5 3 -8 8 -8 9 0 27 -40 22 -48 -1 -1 5 -10 14 -18 8 -9 13 -20 10 -25 -4
-5 -2 -9 4 -9 5 0 22 -26 37 -57 16 -32 32 -59 36 -61 4 -2 8 -12 8 -23 0 -10
5 -19 10 -19 6 0 10 -7 10 -15 0 -8 4 -15 10 -15 5 0 9 -3 8 -7 -4 -14 64
-133 76 -133 6 0 4 -5 -4 -10 -11 -7 -11 -10 -2 -10 7 0 20 -16 28 -35 8 -19
19 -35 24 -35 6 0 10 -3 9 -7 -2 -16 14 -53 23 -53 5 0 6 -5 3 -10 -3 -6 -2
-10 3 -10 5 0 15 -14 22 -30 7 -17 17 -30 22 -30 5 0 7 -4 4 -8 -3 -5 4 -18
14 -30 11 -12 20 -26 20 -32 0 -5 5 -10 11 -10 5 0 7 -4 4 -10 -3 -5 -1 -10 6
-10 7 0 10 -3 7 -6 -6 -5 8 -29 54 -95 6 -10 10 -20 9 -25 -2 -4 4 -11 13 -16
9 -5 16 -16 16 -23 0 -8 5 -15 11 -15 5 0 8 -4 4 -9 -3 -5 3 -16 12 -23 10 -7
19 -20 21 -28 2 -8 8 -17 13 -18 5 -2 7 -8 3 -13 -3 -5 0 -9 5 -9 6 0 11 -5
11 -11 0 -5 18 -37 40 -69 22 -32 40 -64 40 -69 0 -6 5 -11 10 -11 6 0 10 -7
10 -15 0 -8 5 -15 10 -15 6 0 10 -7 10 -15 0 -8 3 -15 8 -15 4 0 16 -16 26
-35 10 -19 23 -32 28 -29 5 3 7 2 6 -3 -3 -11 29 -70 41 -75 5 -1 11 -10 13
-18 2 -8 5 -17 8 -20 20 -18 70 -90 70 -99 0 -6 5 -11 10 -11 6 0 10 -5 10
-10 0 -11 11 -26 47 -66 13 -14 22 -25 21 -27 -3 -7 40 -66 45 -60 4 3 7 -2 7
-12 0 -10 9 -26 21 -36 11 -9 20 -20 20 -23 -3 -20 0 -26 9 -21 6 3 10 -1 10
-9 0 -9 5 -16 10 -16 6 0 10 -5 10 -11 0 -6 6 -16 13 -23 6 -8 19 -24 27 -37
8 -12 25 -33 37 -46 12 -13 20 -23 17 -23 -8 0 33 -55 61 -81 13 -13 25 -28
25 -32 0 -8 11 -23 43 -58 9 -10 17 -22 17 -25 0 -4 9 -15 21 -25 11 -9 19
-19 17 -21 -6 -8 30 -37 37 -30 5 4 5 2 2 -4 -3 -6 12 -30 33 -53 22 -24 40
-46 40 -50 0 -5 12 -22 28 -39 60 -67 82 -95 82 -103 0 -5 9 -14 20 -21 11 -7
20 -16 20 -20 0 -7 21 -36 47 -63 7 -8 13 -19 13 -25 0 -6 5 -8 10 -5 8 5 14
-6 9 -17 -1 -3 46 -57 117 -133 23 -25 40 -45 37 -45 -2 0 2 -6 9 -14 7 -8 16
-12 20 -9 4 2 5 -4 1 -14 -3 -10 -3 -15 1 -12 7 6 56 -36 56 -47 0 -3 19 -25
43 -49 23 -23 64 -68 91 -98 28 -31 54 -53 59 -50 6 3 7 1 3 -5 -3 -6 6 -20
20 -31 15 -12 23 -21 19 -21 -5 0 17 -25 48 -57 32 -31 57 -60 57 -65 0 -4 7
-8 15 -8 8 0 14 -4 12 -9 -1 -5 13 -23 30 -40 18 -17 33 -36 33 -41 0 -6 3 -9
7 -8 11 4 63 -47 63 -61 0 -7 5 -9 10 -6 6 3 14 -4 19 -17 6 -13 10 -20 10
-17 1 4 53 -44 116 -107 63 -62 126 -121 140 -130 14 -9 25 -23 25 -32 0 -8 3
-13 6 -10 6 7 39 -22 140 -120 35 -34 64 -61 64 -59 0 3 20 -16 45 -41 25 -24
45 -49 45 -55 0 -6 3 -8 6 -4 7 7 16 -1 78 -60 24 -24 46 -43 50 -43 3 0 21
-15 40 -32 62 -58 98 -90 142 -123 23 -18 40 -36 37 -39 -4 -3 -1 -6 6 -6 13
0 29 -12 66 -50 14 -14 25 -21 25 -17 0 4 6 2 14 -5 8 -7 12 -16 9 -20 -2 -5
2 -8 9 -8 8 0 34 -18 58 -40 25 -22 50 -40 56 -40 7 0 15 -7 18 -16 4 -9 9
-14 12 -11 8 8 33 -16 27 -25 -2 -5 5 -8 17 -8 12 0 18 -5 15 -10 -3 -6 -2
-10 3 -10 5 0 21 -11 36 -25 15 -14 31 -25 37 -25 5 0 9 -8 10 -17 0 -10 3
-13 5 -6 3 7 19 -3 40 -25 19 -20 34 -33 34 -29 0 5 15 -6 32 -22 18 -17 37
-31 42 -31 5 0 17 -10 27 -22 11 -11 19 -17 19 -13 0 4 8 -2 19 -13 10 -12 21
-19 25 -15 3 3 6 1 6 -5 0 -7 6 -12 13 -12 6 0 24 -13 39 -29 16 -15 40 -34
55 -42 15 -8 39 -26 54 -41 14 -15 29 -25 32 -21 4 3 7 0 7 -7 0 -7 3 -11 6
-7 3 3 16 -3 28 -14 11 -11 42 -34 69 -51 26 -17 47 -36 47 -41 0 -6 3 -8 6
-4 3 3 15 -3 27 -13 11 -11 24 -17 29 -14 4 3 8 1 8 -4 0 -9 77 -62 91 -62 5
0 9 -5 9 -11 0 -5 4 -8 8 -5 5 3 15 -4 22 -15 8 -10 20 -19 27 -19 7 0 13 -4
13 -10 0 -5 7 -10 15 -10 8 0 25 -11 39 -25 14 -14 28 -24 30 -23 3 2 13 -4
23 -12 19 -17 27 -20 44 -20 5 0 7 -5 4 -10 -3 -6 1 -10 9 -10 9 0 16 -4 16
-10 0 -5 6 -10 13 -10 8 0 24 -9 37 -20 12 -11 27 -17 31 -14 5 3 9 -2 9 -10
0 -9 8 -16 19 -16 10 0 22 -7 25 -16 3 -8 10 -12 16 -9 5 3 10 1 10 -4 0 -6 7
-11 15 -11 8 0 15 -5 15 -11 0 -5 5 -7 10 -4 6 3 10 1 10 -4 0 -6 7 -11 15
-11 9 0 18 -7 21 -15 4 -8 10 -12 15 -9 5 3 9 1 9 -5 0 -6 11 -13 24 -17 14
-3 32 -14 42 -25 9 -10 20 -16 24 -14 4 3 11 -2 14 -11 3 -8 10 -13 15 -10 5
3 14 -1 21 -9 7 -8 19 -15 26 -15 8 0 14 -4 14 -9 0 -5 15 -14 33 -22 43 -17
78 -45 69 -54 -4 -5 -2 -5 4 -2 14 8 67 -17 57 -26 -3 -4 2 -7 11 -7 10 0 29
-9 43 -20 14 -11 29 -17 34 -14 5 3 9 -2 9 -11 0 -9 4 -14 9 -10 5 3 16 -1 24
-9 8 -8 17 -12 21 -9 3 4 6 2 6 -4 0 -5 6 -10 13 -10 6 0 31 -12 55 -27 24
-15 54 -31 67 -36 14 -5 25 -13 25 -18 0 -5 7 -9 15 -10 8 -1 22 -3 29 -4 8
-1 14 -6 13 -12 -1 -6 4 -10 11 -8 6 1 12 -3 12 -9 0 -5 5 -7 10 -4 6 3 10 1
10 -5 0 -6 4 -9 9 -6 5 3 14 -1 21 -9 7 -8 16 -12 21 -9 5 3 9 1 9 -5 0 -6 12
-14 28 -17 15 -4 33 -14 40 -23 11 -13 12 -13 7 -1 -4 8 2 5 13 -7 11 -12 22
-19 26 -16 3 4 6 1 6 -4 0 -6 8 -10 18 -9 9 2 25 -6 34 -16 9 -11 19 -19 22
-19 17 0 66 -22 66 -31 0 -5 4 -7 9 -3 5 3 16 -2 24 -10 9 -8 23 -15 31 -15 9
0 16 -5 16 -11 0 -6 6 -9 13 -6 6 2 23 -4 37 -13 14 -10 35 -21 47 -24 13 -4
23 -12 23 -17 0 -6 4 -8 8 -5 5 3 34 -9 66 -25 32 -17 67 -32 78 -34 11 -3 28
-11 38 -20 9 -8 24 -15 33 -15 9 0 17 -4 17 -10 0 -5 9 -10 20 -10 11 0 20 -5
20 -11 0 -5 5 -7 10 -4 6 3 17 0 25 -9 8 -8 24 -13 35 -11 11 2 18 0 15 -5 -5
-8 12 -16 40 -22 6 -1 32 -13 60 -26 27 -14 55 -25 62 -25 7 0 13 -4 13 -9 0
-4 4 -8 10 -8 5 0 34 -11 64 -25 30 -14 58 -25 62 -25 4 0 16 -8 27 -18 11 -9
17 -11 13 -4 -4 7 9 3 29 -8 21 -12 34 -15 30 -8 -4 7 -1 6 7 -3 7 -9 19 -14
25 -12 7 3 13 0 13 -7 0 -6 4 -9 9 -6 4 3 17 -1 27 -9 10 -8 29 -15 42 -15 12
0 22 -5 22 -11 0 -6 7 -8 16 -5 8 3 12 2 9 -4 -3 -5 3 -8 12 -8 10 1 34 -5 53
-14 36 -16 69 -30 83 -33 4 -2 9 -4 12 -5 3 -1 9 -3 14 -4 5 0 13 -4 17 -8 4
-5 16 -8 26 -8 10 0 18 -5 18 -11 0 -5 4 -7 10 -4 5 3 10 1 10 -5 0 -6 4 -8
10 -5 5 3 20 -1 34 -10 13 -9 28 -15 32 -13 5 1 19 -3 32 -10 12 -7 22 -11 22
-8 0 3 12 -1 27 -9 15 -8 30 -12 35 -9 4 3 8 0 8 -5 0 -6 9 -11 20 -11 11 0
28 -4 38 -9 22 -13 133 -53 152 -56 8 -1 23 -5 32 -9 9 -4 22 -8 30 -10 7 -1
18 -4 23 -7 18 -11 90 -33 99 -31 4 2 14 -2 20 -7 7 -6 21 -12 32 -14 10 -2
30 -9 44 -14 14 -6 28 -9 33 -6 4 2 7 -1 7 -7 0 -6 4 -9 9 -5 5 3 12 1 16 -4
3 -5 14 -8 25 -6 11 2 20 0 20 -4 0 -5 15 -12 33 -16 17 -4 34 -8 37 -9 3 -1
11 -5 19 -10 11 -7 12 -6 6 5 -6 11 -4 10 11 -1 10 -9 33 -17 49 -19 17 -2 33
-7 36 -13 3 -5 9 -9 13 -9 3 1 8 0 11 0 3 -1 13 -2 23 -4 30 -3 72 -17 72 -24
0 -3 17 -7 38 -9 20 -1 39 -7 40 -12 2 -6 7 -8 11 -6 4 3 32 -2 62 -10 30 -9
62 -16 72 -17 9 -1 17 -5 17 -8 0 -4 13 -7 30 -7 16 1 36 -4 44 -11 7 -6 18
-11 22 -9 9 2 94 -18 124 -30 8 -3 22 -7 30 -8 8 -2 29 -6 45 -10 17 -3 36 -7
43 -7 6 0 12 -4 12 -8 0 -4 9 -5 20 -2 11 3 20 1 20 -5 0 -6 8 -9 18 -7 9 1
26 -2 37 -8 11 -6 38 -12 60 -14 22 -2 46 -4 53 -5 6 -1 12 -5 12 -10 0 -5 8
-8 18 -7 9 1 19 0 22 -1 3 -1 16 -4 30 -5 42 -3 80 -17 80 -27 0 -7 5 -6 13 1
8 6 17 8 21 4 7 -7 20 -10 71 -16 17 -2 35 -6 41 -10 6 -3 27 -7 47 -9 21 -1
37 -5 37 -8 0 -3 10 -7 23 -8 26 -3 62 -10 62 -12 0 -1 17 -3 37 -4 20 -1 43
-8 51 -15 11 -8 17 -9 22 -1 3 6 12 7 18 3 13 -8 21 -10 87 -19 25 -3 59 -8
75 -11 17 -2 42 -5 58 -6 15 -1 27 -4 27 -7 0 -3 12 -7 28 -8 15 -1 38 -5 52
-8 31 -6 96 -15 130 -18 14 -1 31 -5 39 -10 11 -7 12 -6 6 5 -7 11 -6 12 6 3
8 -6 21 -12 29 -12 45 -4 111 -11 160 -17 30 -5 65 -8 78 -8 12 -1 22 -3 22
-7 0 -3 24 -7 53 -8 54 -4 102 -9 102 -12 0 -3 60 -12 78 -11 11 0 15 -5 10
-12 -5 -9 -3 -9 8 -1 16 12 61 10 244 -11 55 -6 179 -14 265 -18 19 -1 38 -6
42 -12 5 -7 8 -6 8 1 0 6 7 11 15 11 8 0 15 -4 15 -8 0 -4 8 -8 18 -8 381 -7
472 -10 480 -15 6 -3 13 -2 17 4 4 6 12 7 23 1 9 -5 26 -5 39 0 13 5 25 4 28
-1 4 -6 11 -10 16 -10 6 0 7 5 3 12 -5 7 -3 8 6 3 34 -21 707 -21 740 0 6 3
10 1 10 -5 0 -6 5 -8 12 -4 9 6 158 12 386 15 30 0 40 4 35 12 -5 9 -3 9 8 1
11 -8 74 -12 74 -4 0 1 8 3 18 5 9 2 17 -2 17 -8 0 -8 3 -8 8 -2 7 11 17 12
129 18 35 2 66 6 69 10 3 3 13 3 21 0 8 -3 19 0 24 8 7 11 9 11 9 1 0 -8 5
-10 12 -6 7 5 27 8 45 7 18 0 33 4 33 10 0 5 5 5 13 -2 8 -6 17 -8 20 -5 3 4
39 8 79 9 40 2 83 6 95 9 12 2 53 8 90 11 37 4 82 9 98 12 17 3 38 5 48 5 9 0
17 2 17 6 0 4 15 7 33 6 17 0 40 4 50 8 11 6 17 5 17 -2 0 -7 6 -7 21 0 11 7
27 9 34 6 7 -2 16 -2 20 2 3 3 18 7 33 8 15 2 45 5 67 8 22 4 56 8 75 10 19 2
35 5 35 6 0 3 28 8 80 14 22 2 40 5 40 6 0 1 18 4 40 6 22 2 47 7 55 10 15 6
26 8 122 18 25 2 55 8 65 13 10 5 30 9 46 8 15 0 27 2 27 5 0 3 10 5 23 6 35
1 90 11 107 18 8 3 31 8 50 10 19 3 36 6 38 7 1 1 7 3 12 4 6 1 12 4 15 5 3 1
19 4 35 5 17 1 31 3 33 5 3 2 24 7 115 26 15 3 35 5 45 5 9 0 17 4 17 8 0 4 6
8 13 9 6 0 29 2 50 3 20 1 37 6 37 10 0 4 9 6 20 4 11 -2 20 0 20 5 0 4 9 6
20 3 11 -3 20 -1 20 4 0 6 10 9 23 9 12 -1 28 2 35 7 6 5 12 6 12 2 0 -4 6 -3
12 2 7 5 29 10 48 12 19 2 41 8 48 13 7 6 15 8 18 5 3 -3 18 -1 33 5 14 5 35
11 46 13 22 4 57 12 65 15 3 1 8 2 13 1 4 0 7 3 7 7 0 5 10 8 23 7 12 -1 36 2
52 7 17 5 37 11 45 13 8 2 15 4 15 5 0 1 7 3 15 5 8 1 44 11 80 20 36 10 71
18 78 18 6 0 12 5 12 10 0 5 7 7 15 4 8 -4 17 -2 20 3 3 4 13 7 23 6 9 -2 20
1 23 7 4 5 20 11 35 14 45 7 58 10 76 17 9 4 25 9 35 11 10 2 19 4 21 5 1 2 7
4 12 5 6 1 12 4 15 5 3 1 9 3 14 4 5 0 13 4 17 9 4 4 18 7 31 7 12 0 23 4 23
9 0 5 6 8 13 8 19 -2 100 24 116 36 12 10 13 9 7 -1 -6 -10 -1 -10 21 2 17 8
51 20 76 27 26 6 47 16 47 22 0 6 3 7 7 4 3 -4 12 -2 19 4 8 6 21 9 29 5 8 -3
15 -1 15 5 0 6 5 7 10 4 6 -3 10 -1 10 4 0 6 3 10 8 10 4 -1 10 0 15 1 4 1 10
3 15 5 4 1 21 7 37 14 17 7 35 14 40 15 6 1 16 5 23 9 6 5 12 6 12 2 0 -3 14
1 30 10 17 9 30 13 30 9 0 -4 7 -1 15 6 8 7 15 9 15 6 0 -4 7 0 16 8 8 9 20
14 25 10 6 -3 16 0 24 6 8 7 15 9 15 5 0 -4 6 -2 14 4 8 7 24 14 36 16 12 2
34 12 47 21 14 9 22 11 18 5 -3 -6 9 -3 28 8 19 11 38 17 41 14 3 -4 6 -1 6 6
0 7 4 10 8 7 5 -3 20 1 35 9 14 7 39 16 56 20 17 4 31 10 31 14 0 6 58 29 90
36 3 0 19 9 37 18 18 9 39 17 48 17 8 0 15 4 15 8 0 4 20 14 45 21 25 7 45 16
45 20 0 4 10 7 22 8 11 1 24 6 27 11 3 5 19 12 36 16 16 4 32 12 36 17 3 5 14
11 25 13 18 4 68 26 107 47 10 5 22 7 26 4 5 -3 12 2 15 11 3 8 10 12 16 9 5
-3 10 -1 10 6 0 7 3 9 7 6 3 -4 21 3 40 14 18 11 33 17 33 13 0 -4 9 1 21 12
12 10 23 18 25 16 2 -1 27 9 54 23 28 14 50 22 50 18 0 -5 4 -3 8 2 7 10 94
54 110 56 4 0 15 8 25 16 9 9 17 13 17 9 0 -3 11 1 25 10 14 9 25 13 25 9 0
-3 7 1 16 9 8 9 24 16 33 16 10 0 24 7 31 15 7 8 16 13 20 10 4 -3 11 2 14 11
3 8 10 13 15 10 5 -4 17 1 25 10 9 8 16 12 16 8 0 -3 6 -1 13 5 8 6 18 7 22 3
5 -4 5 -1 1 6 -4 6 -2 13 3 13 26 3 74 25 112 51 14 9 29 15 33 11 3 -3 6 -1
6 6 0 7 5 9 10 6 6 -3 10 -2 10 3 0 9 37 25 53 23 4 -1 7 3 7 8 0 5 14 14 30
20 17 5 30 15 30 22 0 7 3 9 6 6 6 -6 79 28 94 43 3 3 12 6 20 8 8 2 24 12 36
23 11 10 26 19 32 19 6 0 20 7 29 15 10 8 21 14 24 13 3 -2 21 9 40 23 19 14
44 29 57 33 13 4 19 12 16 18 -5 7 -1 9 9 5 10 -3 17 -2 17 4 0 5 13 15 30 20
17 6 27 16 23 22 -3 5 -2 7 4 4 5 -3 33 9 61 27 28 19 53 31 56 28 3 -3 6 0 6
6 0 7 6 12 13 12 7 0 19 9 27 19 7 11 17 18 22 15 4 -3 17 4 29 15 12 11 25
18 29 16 5 -3 11 2 14 11 3 8 10 12 16 9 5 -3 10 -1 10 4 0 6 7 11 15 11 8 0
15 4 15 8 0 5 11 14 24 20 14 6 34 19 46 29 11 10 25 18 30 18 5 0 16 9 25 20
9 11 14 13 10 5 -4 -10 -2 -9 8 2 8 10 19 18 26 18 6 0 11 5 11 10 0 6 7 10
15 10 8 0 15 4 15 10 0 5 11 12 25 16 14 3 23 10 20 14 -3 4 6 11 20 14 14 4
25 11 25 17 0 6 5 7 10 4 6 -3 10 -2 10 3 0 5 16 17 35 26 19 9 35 21 35 26 0
6 6 10 14 10 8 0 17 7 20 16 3 8 10 12 16 9 6 -3 13 1 16 9 3 9 14 16 23 16 9
0 22 9 29 20 7 11 17 20 23 20 10 0 24 10 61 43 11 10 22 16 25 13 3 -3 17 6
30 20 12 14 23 21 23 17 1 -4 10 3 20 16 11 13 20 20 20 16 0 -4 15 5 33 19
17 15 37 30 42 34 6 4 27 19 47 34 20 16 40 28 45 28 5 0 24 14 43 30 51 44
60 51 60 46 0 -2 15 9 33 24 17 16 34 28 37 28 3 -1 24 16 47 39 23 22 44 38
47 35 3 -3 6 1 6 8 0 7 3 10 7 7 3 -4 13 2 20 13 8 11 19 18 24 15 5 -4 9 2 9
11 0 10 3 14 7 11 3 -4 19 7 35 23 15 16 28 27 28 24 0 -4 12 5 26 20 15 14
34 26 42 26 8 0 12 3 9 7 -4 3 11 19 33 35 22 17 40 34 40 39 0 5 3 8 8 8 18
-3 33 2 28 9 -2 4 9 14 25 21 16 7 27 17 23 22 -3 5 -1 9 3 9 12 0 50 29 84
63 15 15 32 27 38 27 6 0 11 7 11 16 0 8 4 13 9 9 5 -3 17 5 25 17 9 12 16 18
16 13 0 -6 9 3 19 18 10 16 22 29 27 29 5 0 8 4 7 9 -2 5 0 8 5 7 8 -3 60 40
109 90 18 18 33 31 33 28 0 -3 26 20 58 50 31 31 67 63 79 71 13 8 20 19 17
24 -3 5 2 9 11 9 8 0 18 7 21 15 4 8 13 15 21 15 9 0 13 6 9 15 -3 8 -2 14 2
12 4 -1 21 10 37 26 16 15 33 27 38 27 4 0 5 5 2 10 -3 6 -1 10 5 10 15 0 590
577 583 584 -4 3 2 6 12 6 10 0 16 2 13 5 -3 3 23 35 58 70 35 36 64 70 64 76
0 5 4 8 8 5 5 -3 15 6 22 19 7 14 20 25 27 25 8 0 12 4 8 9 -3 6 3 15 14 21
11 5 28 24 38 40 9 17 23 30 31 30 7 0 10 5 7 10 -3 6 1 13 9 16 9 3 14 10 11
14 -3 5 4 11 15 15 11 4 18 11 15 16 -4 5 -1 9 5 9 6 0 15 11 22 25 6 13 15
22 19 19 5 -3 9 1 9 8 0 7 16 30 36 51 19 20 32 37 29 37 -4 0 7 12 24 26 17
14 31 32 31 40 0 8 4 13 9 11 5 -1 9 1 10 6 1 4 9 15 19 26 9 10 28 33 42 51
14 18 36 45 50 60 14 16 36 44 50 63 14 19 29 33 34 29 5 -3 6 0 2 6 -4 6 2
19 13 29 11 9 18 20 15 25 -3 4 0 8 5 8 6 0 24 18 40 40 15 21 31 36 35 33 3
-3 6 2 6 13 0 10 12 30 25 43 14 13 25 30 25 38 0 8 3 12 8 10 12 -8 32 19 32
44 0 5 5 7 10 4 6 -3 10 3 10 14 0 12 4 20 9 18 5 -1 10 1 10 5 1 4 15 22 31
40 17 18 30 38 30 46 0 7 5 10 10 7 6 -3 10 3 10 15 0 12 4 19 9 15 5 -3 12 4
16 15 3 11 11 20 16 20 6 0 8 4 5 8 -3 5 4 15 15 22 10 8 19 19 19 24 0 5 8
15 18 23 9 8 11 11 2 7 -8 -5 -4 6 10 22 42 51 69 89 70 97 0 4 8 15 18 25 9
10 23 27 30 38 7 10 33 48 58 84 25 36 61 90 81 120 20 30 39 57 43 60 4 3 10
15 14 28 4 12 12 20 17 17 5 -4 9 1 9 9 0 9 5 16 10 16 6 0 10 7 10 15 0 8 10
24 23 36 12 12 15 19 7 15 -8 -4 -6 0 4 8 11 9 17 16 13 16 -4 0 0 8 8 18 8 9
16 22 17 27 3 16 22 33 31 28 4 -2 7 4 7 13 0 9 11 31 24 48 12 17 31 47 41
66 10 19 28 48 41 63 13 16 22 33 18 38 -3 5 2 9 11 9 9 0 13 5 10 10 -3 6 -1
10 5 10 6 0 9 4 5 10 -3 5 2 18 12 28 19 20 53 78 52 89 0 3 4 9 9 12 6 3 12
13 14 21 2 8 9 21 16 28 7 8 10 18 7 23 -4 5 1 9 10 9 9 0 14 4 10 9 -3 5 1
16 9 24 8 8 12 17 9 21 -4 3 -1 6 5 6 7 0 12 6 12 14 0 7 7 19 15 26 9 7 13
15 11 18 -3 2 0 10 7 18 29 32 34 41 31 57 -1 9 2 15 6 12 5 -3 12 5 16 17 4
13 15 34 25 47 10 13 16 27 13 32 -3 5 0 9 5 9 6 0 11 7 11 15 0 8 4 15 8 15
5 0 14 16 22 35 8 19 18 35 22 35 5 0 6 5 3 10 -3 6 -1 10 4 10 6 0 11 9 11
20 0 11 3 20 8 20 7 0 40 67 40 84 0 5 6 12 13 17 7 4 14 16 15 26 2 9 8 19
14 21 5 2 8 8 4 13 -3 5 0 9 6 9 6 0 9 4 5 9 -3 5 1 16 9 24 8 8 12 17 9 21
-4 3 -1 6 5 6 7 0 12 9 12 20 0 11 7 23 15 26 8 4 13 10 10 14 -3 5 -1 11 5
15 6 4 8 11 5 16 -4 5 -1 9 4 9 6 0 11 9 11 20 0 11 5 20 10 20 6 0 10 7 10
15 0 8 5 15 11 15 5 0 7 5 3 11 -3 6 -3 14 2 18 5 3 15 17 22 30 11 19 11 22
0 16 -7 -3 -5 0 5 8 9 8 17 22 17 31 0 9 5 16 11 16 5 0 8 4 5 9 -3 5 1 14 10
21 8 7 13 19 10 27 -3 7 -1 13 4 13 9 0 26 39 22 53 -1 4 2 7 7 7 5 0 12 10
16 23 4 12 9 24 10 27 1 3 6 15 10 27 4 13 12 23 17 23 5 0 7 4 3 9 -3 5 -1
12 5 16 6 4 8 11 5 16 -4 5 -1 9 5 9 6 0 8 5 5 10 -3 6 -1 10 4 10 6 0 11 9
11 20 0 11 5 20 11 20 5 0 7 5 4 10 -3 6 -1 10 6 10 7 0 10 3 6 6 -3 4 0 19 9
35 8 16 11 29 7 29 -5 0 -3 4 4 8 6 4 13 16 15 27 1 11 9 25 16 30 7 6 14 20
15 33 0 12 5 22 10 22 4 0 5 5 2 10 -3 6 -1 10 5 10 6 0 9 4 5 9 -3 5 -1 12 5
16 5 3 10 15 10 26 0 10 4 19 10 19 5 0 9 3 8 8 -1 4 7 27 18 52 10 25 18 48
16 53 -1 4 2 7 6 7 5 0 9 6 9 13 1 13 85 219 93 227 5 5 9 27 12 58 1 6 5 12
9 12 4 0 11 15 14 32 4 18 11 38 15 43 7 9 23 67 20 73 0 1 6 10 15 18 8 9 13
20 10 25 -3 4 6 34 20 64 14 31 23 61 20 66 -4 5 -3 9 2 9 10 0 34 66 36 97 0
12 5 19 9 17 7 -5 12 18 9 39 0 4 4 7 11 7 6 0 8 3 5 7 -4 3 -1 13 6 21 8 11
8 14 0 9 -6 -4 -3 10 7 30 10 21 16 41 13 45 -2 5 1 8 8 8 7 0 10 2 7 5 -3 3
3 33 13 66 11 34 17 65 14 69 -3 5 0 10 5 12 6 2 12 13 13 26 0 12 6 22 11 22
5 0 7 3 3 6 -3 3 1 24 9 47 8 22 17 54 20 71 3 17 10 36 16 43 5 7 8 19 5 27
-3 8 -1 16 5 18 6 2 13 13 14 24 7 46 26 114 33 114 5 0 7 10 7 23 -1 12 2 28
7 35 5 6 6 12 2 12 -4 0 -2 6 4 14 11 13 21 54 24 98 1 9 5 14 9 12 4 -3 8 3
9 13 2 38 11 78 20 89 5 7 9 16 8 20 -1 5 0 11 1 14 5 15 11 47 11 63 0 9 4
17 8 17 4 0 8 6 9 13 5 41 10 72 12 72 2 0 10 32 15 60 2 11 4 20 5 20 2 0 10
36 12 58 1 9 5 17 9 17 4 0 5 9 2 20 -3 11 -1 20 5 20 6 0 9 8 7 19 -2 10 3
30 10 45 9 16 10 28 4 32 -7 4 -7 10 0 18 5 6 12 23 15 36 3 14 10 42 15 63 5
20 7 37 4 37 -3 0 -1 6 4 13 5 6 10 21 11 32 2 25 7 45 16 67 4 9 5 22 1 28
-3 5 -2 10 3 10 5 0 8 10 7 23 -1 12 2 32 6 45 5 14 5 22 -2 22 -6 0 -3 7 5
16 9 8 16 25 17 37 1 27 5 46 15 71 6 15 4 17 -7 11 -8 -5 -5 2 6 15 12 14 14
20 5 15 -12 -6 -13 -5 -2 6 6 7 12 28 12 47 0 18 5 43 11 54 8 15 8 18 0 14
-7 -5 -9 -1 -5 8 3 9 11 16 18 16 6 0 4 5 -4 10 -11 7 -11 10 -2 10 7 0 11 4
8 9 -4 5 -2 21 4 35 7 19 6 26 -3 26 -7 0 -8 3 -2 8 6 4 11 12 12 18 1 6 5 24
8 40 8 35 17 117 18 162 1 17 5 32 10 32 5 0 7 9 4 20 -3 11 -2 20 3 20 4 0 7
8 7 18 -1 13 12 129 17 162 1 3 5 11 9 18 5 7 3 12 -5 12 -8 0 -9 3 -2 8 9 6
15 41 18 119 0 17 4 29 8 27 4 -2 7 4 7 13 -1 37 10 123 16 133 3 5 1 10 -6
10 -8 0 -7 5 2 17 12 14 12 15 0 9 -8 -6 -7 0 4 18 11 16 13 26 6 26 -8 0 -9
6 -3 18 6 9 9 38 8 65 0 26 2 47 5 47 3 0 5 26 6 58 0 33 6 68 12 80 6 12 7
23 2 26 -10 7 -9 31 2 42 3 4 2 16 -4 27 -7 12 -7 17 -1 13 6 -3 10 13 11 42
1 26 3 80 4 120 1 39 5 72 9 72 4 0 3 13 -2 29 -4 16 -5 32 -2 36 4 3 7 41 8
83 1 42 3 77 4 77 1 0 3 38 4 85 1 47 5 91 9 98 5 6 5 12 0 12 -4 0 -8 20 -8
45 0 25 3 45 7 45 8 0 5 21 -5 37 -4 6 -3 15 3 18 8 5 8 11 1 19 -6 7 -8 16
-4 20 12 12 11 370 -1 378 -8 5 -8 8 0 8 12 0 13 148 1 168 -5 6 -4 12 0 12 5
0 7 17 5 38 -6 80 -5 109 2 120 4 7 3 12 -2 12 -10 0 -9 50 1 67 4 6 3 14 -2
17 -5 3 -9 23 -9 43 -2 100 -12 286 -17 294 -4 5 0 9 7 9 8 0 9 3 3 8 -5 4
-11 39 -11 77 -2 118 -7 169 -17 189 -7 14 -6 16 4 11 8 -6 10 -4 3 6 -13 21
-14 39 -1 39 7 0 5 5 -3 10 -8 5 -11 10 -6 10 5 0 3 7 -4 15 -10 12 -10 15 1
15 9 0 10 3 4 8 -5 4 -10 30 -10 57 0 28 -3 60 -7 73 -5 13 -3 22 3 22 6 0 7
5 3 11 -4 6 -8 25 -10 43 -2 17 -5 56 -8 86 -4 30 -8 72 -11 93 -4 26 -1 37 7
37 10 0 10 2 1 8 -12 8 -21 47 -30 132 -3 30 -10 58 -17 62 -6 4 -6 8 -1 8 11
0 12 43 2 75 -7 22 -14 73 -22 150 -5 51 -12 90 -15 90 -1 0 -4 18 -6 40 -6
67 -14 114 -23 137 -4 13 -7 31 -6 41 2 9 0 17 -3 17 -4 0 -8 15 -8 33 -1 17
-5 43 -8 57 -11 43 -19 94 -19 123 0 15 -4 27 -8 27 -4 0 -6 9 -4 20 2 11 0
22 -6 25 -5 4 -6 17 -3 31 3 13 2 24 -4 24 -5 0 -8 14 -6 30 2 17 -1 30 -6 30
-5 0 -7 7 -4 15 4 8 1 22 -5 29 -9 11 -9 15 1 19 11 4 10 6 0 6 -7 1 -10 6 -7
11 3 6 2 10 -2 10 -5 0 -8 17 -8 38 0 20 -3 40 -7 43 -5 3 -10 23 -12 45 -3
21 -5 40 -6 42 -2 1 -4 7 -5 12 -1 6 -4 13 -5 18 -1 4 -2 15 -1 25 1 9 -1 17
-6 17 -4 0 -9 10 -9 23 -3 51 -8 83 -16 93 -4 6 -8 25 -10 42 -1 18 -7 32 -12
32 -5 0 -7 3 -4 6 4 3 -4 44 -17 92 -13 48 -21 90 -18 94 2 5 0 8 -6 8 -6 0
-8 7 -5 15 4 8 1 22 -6 30 -7 8 -9 15 -5 15 4 0 2 7 -5 15 -6 8 -9 19 -5 25 3
5 3 10 -2 10 -4 0 -9 13 -10 28 -3 39 -7 56 -15 62 -3 3 -9 25 -13 50 -4 24
-11 52 -16 62 -5 10 -7 18 -3 18 3 0 1 7 -6 15 -7 8 -10 15 -7 15 3 0 -3 27
-13 60 -10 33 -16 60 -13 60 4 0 -1 8 -10 18 -10 10 -14 21 -11 25 6 5 -6 53
-25 102 -24 62 -41 127 -36 135 3 6 1 10 -4 10 -6 0 -10 3 -9 8 1 4 -3 17 -10
30 -7 12 -10 27 -7 32 3 5 1 11 -5 15 -6 4 -8 11 -5 16 4 5 1 9 -5 9 -7 0 -10
7 -6 15 3 8 1 15 -5 15 -6 0 -9 6 -6 13 2 6 -4 32 -15 55 -10 24 -16 48 -13
52 3 5 0 14 -7 22 -7 7 -15 22 -16 33 -2 11 -9 26 -15 34 -10 12 -9 13 2 6 8
-5 4 7 -9 25 -13 18 -18 30 -11 26 9 -6 8 2 -3 23 -9 17 -13 31 -9 31 5 0 2 4
-4 8 -7 5 -14 20 -15 35 -1 15 -6 27 -10 27 -4 0 -8 9 -8 19 0 11 -5 23 -11
26 -6 4 -8 13 -5 21 3 8 1 14 -3 14 -11 0 -21 26 -27 64 -2 16 -7 32 -12 35
-8 5 -14 23 -24 68 -1 5 -7 19 -14 32 -7 14 -11 28 -8 33 3 4 0 8 -5 8 -6 0
-11 7 -11 15 0 8 -5 15 -11 15 -5 0 -7 5 -4 10 4 6 -1 24 -9 42 -9 17 -16 39
-16 50 0 10 -5 18 -11 18 -5 0 -8 4 -4 9 3 5 1 12 -5 16 -6 4 -8 11 -5 16 4 5
1 9 -5 9 -6 0 -9 4 -5 9 3 5 1 12 -5 16 -6 4 -8 10 -5 15 3 5 1 11 -5 15 -6 4
-8 11 -5 16 4 5 1 9 -4 9 -6 0 -10 3 -9 8 3 14 -14 62 -23 62 -5 0 -8 3 -7 8
1 4 -4 21 -12 37 -7 17 -20 46 -28 65 -8 19 -15 41 -15 48 0 6 -4 12 -8 12 -4
0 -10 13 -14 30 -4 16 -11 32 -16 35 -5 4 -9 15 -9 26 0 10 -4 19 -10 19 -5 0
-10 7 -10 15 0 8 -4 15 -10 15 -5 0 -7 6 -4 14 3 7 -2 20 -10 29 -8 8 -12 18
-8 22 4 3 0 12 -8 18 -8 7 -16 18 -17 25 -2 6 -4 18 -5 25 -2 6 -5 14 -8 17
-10 10 -54 105 -52 113 1 4 -2 7 -8 7 -5 0 -7 6 -4 14 3 7 -2 16 -11 20 -9 3
-14 10 -10 15 3 5 1 12 -5 16 -6 4 -8 11 -5 16 4 5 2 9 -3 9 -5 0 -12 9 -15
20 -3 11 -6 24 -7 28 -1 4 -9 16 -16 27 -8 11 -14 28 -14 38 0 10 -4 16 -9 13
-7 -5 -18 16 -20 39 0 9 -35 69 -49 87 -8 9 -11 22 -7 27 3 6 1 11 -4 11 -6 0
-11 7 -11 15 0 8 -5 15 -11 15 -5 0 -8 4 -4 9 3 5 -1 15 -8 23 -7 7 -19 29
-27 48 -8 19 -20 38 -26 43 -7 4 -11 14 -8 22 4 8 2 15 -3 15 -5 0 -15 16 -23
35 -7 19 -18 31 -23 28 -6 -3 -7 -1 -4 5 7 11 -20 71 -38 84 -5 4 -6 8 -1 8 5
0 2 8 -6 18 -8 9 -21 32 -29 50 -8 17 -18 32 -22 32 -5 0 -5 5 -2 10 3 6 1 10
-5 10 -6 0 -8 5 -5 10 3 6 1 10 -4 10 -6 0 -11 7 -11 15 0 8 -4 15 -10 15 -5
0 -10 8 -10 18 0 10 -8 27 -18 38 -10 10 -24 34 -31 52 -7 17 -17 32 -22 32
-5 0 -9 9 -9 21 0 11 -4 17 -10 14 -5 -3 -10 3 -10 14 0 12 -5 21 -12 21 -6 0
-9 3 -5 6 3 4 -9 31 -28 60 -19 30 -35 59 -35 64 0 6 -4 10 -10 10 -5 0 -10 7
-10 15 0 8 -4 15 -10 15 -5 0 -7 6 -4 14 3 7 -2 16 -10 19 -9 4 -16 13 -16 22
0 8 -5 15 -12 15 -6 0 -9 3 -5 6 3 4 1 12 -6 20 -22 25 -32 40 -35 54 -2 8 -7
17 -11 20 -12 9 -42 60 -35 60 4 0 -2 8 -13 18 -11 9 -23 24 -27 32 -4 8 -12
24 -19 35 -7 11 -25 41 -41 68 -15 26 -32 47 -37 47 -5 0 -9 7 -9 15 0 9 -6
18 -13 21 -8 3 -14 11 -14 18 0 7 -21 42 -46 78 -26 36 -47 70 -47 75 0 5 -9
15 -19 23 -11 7 -18 17 -16 20 2 4 -5 16 -15 28 -11 12 -20 26 -20 32 0 5 -4
10 -10 10 -5 0 -10 7 -10 15 0 8 -4 15 -10 15 -5 0 -10 7 -10 15 0 8 -4 15
-10 15 -5 0 -10 7 -10 15 0 8 -4 15 -10 15 -5 0 -10 7 -10 15 0 8 -5 15 -12
15 -6 0 -9 3 -6 6 3 3 -4 16 -16 29 -35 38 -46 54 -46 64 0 5 -7 12 -16 15 -8
3 -12 10 -9 16 3 5 1 10 -5 10 -6 0 -13 7 -17 16 -3 9 -17 28 -29 42 -13 14
-24 29 -24 34 0 9 -10 23 -42 59 -10 10 -18 22 -18 25 0 13 -38 53 -44 46 -4
-3 -4 2 0 12 5 14 4 17 -4 12 -7 -4 -12 -1 -12 9 0 8 -7 18 -15 21 -8 4 -15
10 -15 15 0 14 -98 138 -104 132 -6 -6 -9 14 -3 20 1 2 -9 14 -23 28 -14 14
-34 38 -45 53 -11 16 -29 39 -40 51 -40 47 -55 65 -55 71 0 3 -11 17 -25 32
-14 15 -33 35 -43 45 -9 11 -16 23 -14 28 1 5 -5 9 -14 9 -8 0 -12 5 -9 10 3
6 1 10 -4 10 -6 0 -11 7 -11 16 0 8 -4 12 -10 9 -5 -3 -10 0 -10 8 0 7 -10 23
-22 34 -13 11 -36 37 -53 57 -16 20 -49 58 -72 84 -23 25 -40 50 -37 53 2 4
-6 9 -17 12 -12 3 -18 10 -14 16 3 6 3 11 -2 11 -4 0 -21 11 -37 25 -16 14
-25 25 -21 25 4 0 -8 16 -28 35 -21 20 -37 40 -37 45 0 6 -7 10 -17 10 -9 0
-13 3 -10 7 4 3 -11 24 -33 45 -22 22 -40 44 -40 49 0 5 -4 9 -10 9 -5 0 -10
8 -10 17 0 9 -3 14 -6 10 -6 -6 -94 82 -94 95 0 4 -7 8 -17 8 -9 0 -14 3 -10
6 3 3 -21 33 -53 65 -33 32 -58 59 -56 59 1 0 -17 20 -41 45 -23 25 -47 45
-53 45 -5 0 -9 4 -8 9 2 5 -22 33 -52 62 -30 30 -54 57 -52 62 1 4 -3 7 -9 7
-15 0 -39 26 -32 34 4 3 -1 6 -11 6 -9 0 -14 5 -11 10 3 6 1 10 -4 10 -6 0
-33 23 -61 50 -28 28 -54 50 -58 50 -5 0 -15 11 -22 25 -7 14 -16 23 -18 20
-6 -6 -42 34 -42 47 0 4 -4 8 -10 8 -5 0 -29 19 -54 43 -116 111 -172 161
-178 159 -5 -1 -8 5 -8 14 0 8 -4 12 -10 9 -5 -3 -10 1 -10 10 0 9 -4 14 -9
11 -5 -3 -12 1 -15 10 -3 8 -10 13 -15 9 -5 -3 -13 4 -16 16 -4 11 -9 18 -12
15 -3 -2 -20 11 -39 30 -19 19 -37 34 -40 34 -3 0 -27 23 -55 50 -27 28 -52
50 -54 50 -2 0 -15 10 -28 23 -32 30 -66 57 -73 57 -3 0 -15 10 -27 23 -12 12
-42 38 -67 57 -65 49 -71 54 -117 98 -23 21 -44 38 -46 35 -2 -2 -16 8 -31 22
-15 14 -29 25 -32 25 -3 0 -19 14 -36 30 -16 17 -36 30 -44 30 -9 0 -13 3 -11
8 3 4 -13 18 -34 32 -21 13 -39 28 -39 32 0 4 -7 8 -15 8 -9 0 -18 7 -21 15
-3 8 -14 17 -25 20 -11 4 -17 11 -14 16 4 5 -1 9 -11 9 -9 0 -27 11 -39 24
-13 14 -26 22 -29 19 -3 -4 -6 -1 -6 5 0 7 -4 12 -10 12 -5 0 -18 8 -28 18
-10 9 -29 24 -41 32 -13 8 -33 23 -44 32 -12 10 -26 21 -32 26 -37 29 -75 52
-75 45 0 -4 -4 -3 -8 3 -10 17 -101 84 -112 84 -6 0 -10 4 -10 8 0 4 -22 21
-50 37 -27 17 -50 34 -50 38 0 5 -4 5 -10 2 -5 -3 -10 1 -10 10 0 9 -5 15 -12
13 -6 -2 -22 6 -36 19 -14 13 -31 23 -38 23 -8 0 -14 4 -14 10 0 5 -15 16 -34
25 -18 9 -43 25 -54 35 -12 11 -26 20 -32 20 -6 0 -13 7 -16 15 -4 8 -9 13
-13 11 -4 -3 -20 6 -35 19 -16 14 -32 22 -37 20 -4 -3 -13 4 -19 15 -6 11 -16
20 -23 20 -7 0 -22 8 -33 18 -10 9 -31 23 -46 31 -16 8 -28 18 -28 23 0 5 -4
7 -9 4 -4 -3 -21 6 -37 19 -16 14 -38 28 -49 31 -10 4 -25 13 -33 20 -7 8 -20
14 -28 14 -8 0 -14 3 -14 8 0 4 -9 13 -21 20 -17 11 -20 11 -14 0 3 -7 -2 -3
-13 9 -11 12 -22 19 -26 16 -3 -4 -6 -2 -6 4 0 5 -18 18 -40 28 -22 10 -40 22
-40 27 0 4 -7 8 -15 8 -8 0 -15 4 -15 9 0 5 -11 12 -25 15 -14 4 -25 11 -25
17 0 6 -4 8 -8 5 -5 -3 -18 4 -30 14 -12 11 -28 20 -37 20 -9 0 -18 7 -21 15
-4 8 -10 13 -14 10 -4 -3 -19 4 -32 15 -14 11 -28 16 -32 13 -3 -3 -6 -1 -6 6
0 7 -4 9 -10 6 -5 -3 -10 -1 -10 4 0 6 -7 11 -15 11 -8 0 -15 5 -15 10 0 6 -8
10 -18 10 -10 0 -28 9 -40 20 -12 12 -22 18 -22 14 0 -3 -7 -1 -15 6 -8 7 -15
9 -15 4 0 -5 -7 2 -16 14 -8 12 -20 20 -25 16 -6 -3 -17 2 -24 12 -8 11 -15
15 -15 11 0 -5 -12 0 -27 11 -16 10 -34 17 -42 14 -8 -3 -11 0 -7 7 5 7 -1 11
-13 11 -12 0 -21 5 -21 10 0 6 -7 10 -15 10 -8 0 -15 5 -15 11 0 5 -4 8 -9 4
-5 -3 -15 1 -23 8 -7 7 -17 14 -21 15 -19 2 -67 28 -67 35 0 5 -4 5 -10 2 -5
-3 -10 -1 -10 5 0 6 -4 8 -10 5 -5 -3 -10 -1 -10 4 0 6 -9 11 -20 11 -11 0
-20 3 -20 8 0 6 -72 42 -90 45 -3 0 -11 7 -18 14 -8 7 -18 11 -23 8 -5 -4 -9
-1 -9 5 0 6 -4 9 -9 6 -5 -4 -11 -3 -13 2 -3 9 -93 52 -108 52 -5 0 -10 4 -10
9 0 5 -10 12 -22 16 -13 4 -25 8 -28 10 -57 25 -69 33 -63 40 5 4 2 5 -5 1
-11 -6 -39 6 -145 61 -15 8 -37 16 -49 18 -13 3 -24 9 -26 15 -2 5 -11 10 -20
10 -8 0 -24 8 -35 18 -11 9 -17 11 -13 5 5 -9 2 -11 -8 -7 -9 3 -16 10 -16 14
0 4 -16 11 -35 14 -19 4 -35 11 -35 16 0 6 -3 9 -7 9 -19 -4 -73 15 -73 24 0
6 -3 7 -7 4 -3 -4 -12 1 -20 11 -9 10 -11 11 -7 2 6 -12 5 -13 -7 -4 -8 6 -38
19 -66 29 -29 11 -53 22 -53 25 0 4 -6 7 -12 7 -23 1 -43 8 -50 17 -3 6 -19
11 -35 14 -15 2 -29 7 -31 13 -2 5 -12 9 -22 9 -10 0 -21 4 -24 8 -3 4 -28 14
-55 22 -28 7 -51 17 -51 20 0 4 -7 7 -15 8 -8 1 -22 3 -30 4 -8 1 -15 5 -15
10 0 4 -3 7 -7 7 -5 -1 -11 0 -15 1 -5 1 -11 3 -15 5 -8 2 -19 6 -78 28 -16 7
-33 11 -37 9 -5 -1 -8 3 -8 9 0 5 -4 7 -10 4 -5 -3 -10 -2 -10 3 0 5 -6 9 -12
10 -23 1 -58 11 -71 19 -6 4 -21 9 -32 10 -10 2 -23 9 -27 16 -4 6 -8 9 -8 5
0 -4 -18 -1 -39 7 -22 7 -42 11 -45 8 -3 -4 -6 -1 -6 6 0 8 -7 11 -15 7 -8 -3
-15 -1 -15 4 0 6 -3 9 -7 8 -5 -1 -19 4 -32 11 -13 7 -21 8 -17 3 3 -6 -12 -1
-35 10 -22 10 -43 17 -47 14 -3 -3 -11 -1 -19 5 -7 6 -13 8 -13 3 0 -5 -4 -4
-8 3 -4 7 -22 13 -40 15 -18 1 -32 6 -32 10 0 4 -9 8 -19 8 -11 0 -23 5 -26
10 -4 6 -10 8 -15 5 -5 -3 -24 1 -42 9 -52 21 -134 47 -162 50 -14 2 -31 8
-38 13 -7 6 -23 9 -35 8 -13 -1 -23 2 -23 7 0 5 -4 6 -10 3 -5 -3 -20 0 -32 8
-13 7 -35 13 -50 12 -15 0 -24 3 -22 7 5 8 -11 12 -30 9 -4 -1 -14 3 -22 10
-7 6 -18 8 -24 4 -5 -3 -10 0 -10 7 0 11 -2 11 -9 0 -7 -11 -11 -11 -22 1 -8
7 -22 13 -32 11 -9 -1 -17 1 -17 6 0 4 -8 7 -17 7 -26 -1 -96 14 -108 23 -5 5
-28 10 -50 11 -22 2 -42 7 -45 11 -3 4 -25 10 -48 12 -23 2 -49 9 -57 16 -12
10 -15 10 -15 0 0 -10 -3 -10 -14 -1 -8 7 -31 14 -52 17 -20 2 -42 8 -48 11
-11 8 -13 8 -56 14 -14 2 -28 9 -32 14 -5 6 -8 5 -8 -3 0 -8 -5 -10 -12 -5 -7
4 -22 9 -33 11 -35 6 -40 7 -50 13 -5 3 -26 6 -45 8 -19 2 -41 8 -47 13 -7 6
-22 8 -33 5 -11 -3 -22 -1 -25 3 -3 5 -13 7 -23 5 -9 -1 -22 1 -28 6 -6 5 -28
11 -50 15 -21 3 -52 7 -69 10 -16 3 -40 6 -52 7 -13 0 -23 4 -23 7 0 3 -15 7
-34 8 -18 1 -56 8 -84 16 -28 7 -62 12 -76 11 -14 0 -26 2 -26 6 0 3 -10 5
-22 5 -13 -1 -29 2 -35 7 -7 5 -20 7 -28 3 -8 -3 -15 -2 -15 2 0 7 -20 9 -107
15 -13 1 -23 4 -23 7 0 5 -44 11 -97 14 -18 0 -33 3 -33 6 0 3 -21 6 -46 7
-26 2 -53 8 -62 15 -13 11 -14 11 -7 -1 6 -11 5 -12 -6 -5 -8 5 -25 9 -39 10
-14 1 -52 5 -85 9 -33 4 -76 9 -95 10 -19 2 -36 4 -37 5 -2 2 -12 3 -22 4 -11
0 -22 4 -26 8 -4 3 -19 3 -35 -2 -15 -4 -32 -4 -37 1 -4 4 -37 10 -73 13 -36
3 -65 6 -65 7 0 1 -99 7 -185 11 -14 1 -28 6 -32 12 -5 8 -8 7 -8 -1 0 -6 -8
-10 -17 -8 -10 2 -18 4 -18 6 0 3 -51 6 -172 12 -57 3 -107 8 -113 12 -5 3
-10 1 -10 -5 0 -8 -6 -8 -20 0 -15 8 -20 8 -20 -1 0 -8 -4 -8 -15 1 -12 10
-18 10 -32 -1 -9 -8 -14 -9 -10 -3 6 11 -7 12 -125 17 -16 0 -28 5 -28 9 0 5
-6 6 -12 2 -15 -9 -49 -10 -63 -2 -15 8 -1188 4 -1202 -5 -6 -4 -14 -1 -16 5
-3 7 -6 9 -6 3z"/>
</g>
</svg>
